<?xml version="1.0" encoding="UTF-8" ?>
<!DOCTYPE svg PUBLIC "-//W3C//DTD SVG 1.1//EN" "http://www.w3.org/Graphics/SVG/1.1/DTD/svg11.dtd">
<svg width="420pt" height="417pt" viewBox="0 0 420 417" version="1.1" xmlns="http://www.w3.org/2000/svg">
<path fill="#b6e5e5" d=" M 0.00 0.00 L 420.00 0.00 L 420.00 417.00 L 0.00 417.00 L 0.00 0.00 Z" />
<path fill="#e60c0c" d=" M 224.67 37.16 C 229.50 37.85 234.09 39.74 239.09 39.10 C 242.29 40.98 246.07 41.52 249.22 43.49 C 253.92 46.77 260.73 47.24 263.44 52.97 C 263.45 53.79 263.46 54.61 263.48 55.43 C 263.13 55.77 262.44 56.44 262.09 56.78 C 261.11 59.63 259.40 62.11 257.65 64.53 C 256.93 65.60 256.24 66.69 255.60 67.82 C 255.19 68.07 254.37 68.58 253.95 68.84 C 251.17 75.43 246.88 81.24 243.59 87.59 C 243.53 88.10 243.41 89.12 243.36 89.63 C 241.64 92.05 240.29 94.68 238.84 97.25 C 237.93 99.47 236.92 101.65 235.87 103.81 C 235.38 104.03 234.40 104.47 233.91 104.69 C 232.39 107.21 230.54 109.52 228.25 111.37 C 225.36 110.10 222.68 108.43 219.93 106.91 C 218.68 106.40 217.50 105.74 216.35 105.03 C 217.24 92.70 217.87 80.35 218.89 68.02 C 218.98 60.26 219.48 52.43 218.08 44.76 C 219.60 42.67 221.05 40.52 222.43 38.33 C 222.99 38.03 224.11 37.45 224.67 37.16 Z" />
<path fill="#6a0c69" d=" M 296.22 71.84 C 296.22 68.27 299.20 64.40 303.11 65.59 C 313.65 68.51 321.05 77.20 329.78 83.22 C 331.90 84.97 332.38 87.89 333.38 90.31 C 332.53 95.64 328.02 99.00 323.90 101.88 C 316.05 106.37 309.49 112.75 303.32 119.28 C 297.41 124.45 290.83 129.30 286.82 136.22 C 282.37 139.08 274.65 135.68 275.46 129.98 C 276.09 126.07 278.70 122.85 280.14 119.21 C 284.34 108.07 288.51 96.90 292.17 85.55 C 293.03 80.84 294.44 76.28 296.22 71.84 Z" />
<path fill="#267eb5" d=" M 155.96 110.73 C 167.65 107.77 179.44 111.51 191.18 111.94 C 202.21 113.76 213.07 117.38 222.69 123.13 C 237.89 131.47 249.03 145.46 257.98 160.00 C 266.06 176.48 267.23 196.94 258.46 213.40 C 256.97 216.44 255.34 219.44 253.18 222.06 C 248.29 227.88 244.74 234.89 238.59 239.58 C 228.84 247.24 217.53 252.68 206.07 257.30 C 197.88 260.76 189.97 265.75 180.91 266.46 C 177.54 269.29 177.34 273.97 177.33 278.04 C 177.44 289.55 177.22 301.07 177.41 312.59 C 185.47 312.74 193.53 312.55 201.60 312.73 C 203.52 314.69 205.46 316.65 207.39 318.62 C 207.13 332.25 207.44 345.89 207.26 359.52 C 204.97 361.76 202.72 364.04 200.48 366.32 C 170.81 366.17 141.13 366.44 111.45 366.21 C 109.20 363.91 106.92 361.63 104.60 359.41 C 104.80 345.14 104.64 330.88 104.60 316.61 C 106.60 314.67 108.58 312.71 110.53 310.72 C 116.88 310.75 123.22 310.74 129.57 310.56 C 129.76 257.16 129.74 203.76 129.58 150.36 C 126.41 150.33 123.14 150.12 120.11 151.26 C 114.54 153.16 108.88 154.98 103.73 157.88 C 103.84 148.94 103.53 140.00 103.73 131.06 C 105.02 129.46 106.28 127.85 107.52 126.21 C 122.44 117.86 139.00 112.73 155.96 110.73 Z" />
<path fill="#b6e5e5" d=" M 168.20 148.12 C 180.04 149.82 192.08 151.49 203.28 155.87 C 209.59 158.25 215.08 162.45 219.72 167.27 C 224.09 173.17 227.71 180.43 226.60 187.98 C 225.11 197.88 218.81 207.24 209.66 211.56 C 204.26 214.22 199.00 217.29 193.18 218.95 C 184.72 221.53 175.84 222.09 167.23 223.98 C 167.50 215.01 168.16 206.04 168.22 197.06 C 167.81 188.04 167.65 179.01 168.00 170.00 C 167.75 162.70 167.94 155.41 168.20 148.12 Z" />
<path fill="#009344" d=" M 332.06 157.99 C 344.14 156.92 354.72 149.27 367.00 149.38 C 368.16 150.54 369.32 151.70 370.47 152.87 C 370.41 159.17 370.89 165.52 369.86 171.76 C 369.01 177.70 369.80 183.92 367.78 189.66 C 365.46 193.20 361.43 196.05 357.02 195.59 C 350.84 196.28 345.94 191.94 340.80 189.28 C 335.56 186.95 329.85 185.87 324.64 183.45 C 318.35 180.03 310.56 179.74 305.14 174.69 C 302.98 171.06 305.30 166.47 309.10 165.08 C 316.47 161.94 324.28 159.84 332.06 157.99 Z" />
<path fill="#203c8c" d=" M 281.63 220.63 C 285.07 217.57 290.13 218.44 294.05 219.96 C 298.16 222.04 301.41 225.51 305.70 227.30 C 315.59 231.50 324.81 237.11 334.87 240.93 C 341.00 243.35 348.15 245.27 352.01 251.08 C 353.42 255.00 352.37 260.38 348.28 262.32 C 338.89 267.28 331.62 275.20 324.11 282.54 C 320.60 283.18 317.16 281.71 315.36 278.62 C 310.65 271.03 305.65 263.63 300.74 256.19 C 295.47 249.76 290.39 243.19 285.37 236.57 C 283.66 234.29 281.24 232.61 279.74 230.16 C 278.50 227.03 278.73 222.78 281.63 220.63 Z" />
</svg>
